<?xml version="1.0" encoding="utf-8"?>
<!-- Generator: Adobe Illustrator 16.0.0, SVG Export Plug-In . SVG Version: 6.00 Build 0)  -->
<!DOCTYPE svg PUBLIC "-//W3C//DTD SVG 1.1//EN" "http://www.w3.org/Graphics/SVG/1.1/DTD/svg11.dtd">
<svg version="1.1" id="Layer_1" xmlns="http://www.w3.org/2000/svg" xmlns:xlink="http://www.w3.org/1999/xlink" x="0px" y="0px"
	 width="612px" height="168.308px" viewBox="0 0 612 168.308" enable-background="new 0 0 612 168.308" xml:space="preserve">
<g>
	<path fill="#FFFFFF" d="M53.567,155.871c-2.237,0-2.685-1.608-3.313-3.87c-0.755-2.717-1.222-5.405,1.497-6.161
		c88.152-24.487,192.175-36.683,254.47-39.685c85.048-4.1,168.049-1.752,253.748,7.175c2.807,0.293,2.938,2.508,2.646,5.313
		c-0.293,2.807-0.898,5.133-3.705,4.849c-85.174-8.873-167.669-11.208-252.196-7.132c-61.768,2.977-164.093,14.842-251.433,39.103
		C54.822,155.59,54.019,155.871,53.567,155.871z"/>
	<path fill-rule="evenodd" clip-rule="evenodd" fill="#FFFFFF" d="M482.877,122.97c0,2.337-0.011,4.537,0.002,6.735
		c0.02,3.645-4.027,5.415-8.11,2.881c-7.053-4.381-14.011-8.994-20.536-14.114c-8.504-6.701-6.076-5.143-12.589-10.51
		c-14.102-12.509-29.865-27.755-44.077-40.362c-2.173,5.344-4.671,12.467-6.26,17.765c-1.703,5.676-3.24,11.553-10.359,12.625
		c-1.981,0.297-4.863,0.346-5.941-0.801c-0.992-1.056-0.626-4.052,0.029-5.877c3.425-9.566,7.227-18.998,10.706-28.545
		c2.046-5.617,3.759-11.355,5.578-17.053c0.957-3.007,5.149-4.322,9.425-2.69c3.006,1.147,3.302,3.336,1.855,6.009
		c-0.433,0.804-0.855,2.266-1.071,3.152c-0.735,3.025-1.354,5.235-1.794,6.824c5.003-1.553,10.277-3.423,14.649-4.999
		c7.404-2.667,10.874-3.635,16.928-6.224c5.729-2.45,11.709-5.904,15.016-11.145c2.189-3.471,1.624-8.145-1.433-10.99
		c-2.246-2.089-5.775-2.891-12.887-2.322c-19.709,1.576-39.116,8.768-55.128,21.255c-0.842,0.656-1.841,1.616-2.742,1.59
		c-2.244-0.067-5.462,0.159-6.496-1.15c-2.024-2.556,0.669-4.125,2.779-5.659c9.113-6.632,22.251-13.323,34.012-18.556
		c10.497-4.671,22.859-7.002,34.503-6.728c8.337,0.196,11.386,1.134,13.621,1.935c13.389,4.799,11.007,14.906,8.01,20.936
		c-5.727,11.521-14.415,15.467-25.54,19.813c-5.656,2.209-13.272,4.587-15.789,5.263c-6.127,1.646-11.377,3.019-13.234,3.173
		c9.3,7.653,20.193,16.864,29.216,24.187c9.206,8.022,18.885,14.86,24.147,18.729C474.614,119.261,477.46,119.255,482.877,122.97"/>
	<path fill-rule="evenodd" clip-rule="evenodd" fill="#FFFFFF" d="M71.383,24.839C65.733,32.458,61.208,40,57.607,47.903
		C51.53,61.238,45.748,74.935,40.914,88.735c-5.744,16.399-8.705,24.896-12.499,41.877c-0.629,2.815-3.216,19.085-4.548,22.625
		c-1.073,2.851-3.127,5.734-5.529,7.588c-3.544,2.735-8.646,0.152-8.515-4.281c0.148-5.048,0.786-10.193,2.073-15.069
		c2.474-9.372,5.388-21.812,8.428-31.021c3.518-10.659,7.047-21.334,11.162-31.77c4.332-10.986,8.937-21.91,14.217-32.462
		c4.497-8.987,6.409-13.525,15.333-26.03c1.66-2.327,3.729-4.652,6.114-6.224c2.268-1.494,6.274-3.558,7.572-2.635
		c2.564,1.822,5.311,5.556,5.271,8.46c-0.112,8.115-1.585,16.214-2.571,24.313c-0.344,2.828-0.835,5.638-1.46,9.793
		c5.261-7.304,14.088-18.278,19.222-23.874c6.103-6.651,7.515-8.273,15.087-14.124c2.829-2.186,6.325-0.462,7.626,3.545
		c2.118,6.521,1.688,13.071,0.291,19.679c-3.412,16.141-6.684,32.311-10.063,48.458c-2.02,9.652-4.091,19.294-6.235,28.92
		c-0.964,4.33-3.195,5.646-7.353,4.88c-4.572-0.843-4.503-4.041-3.76-7.405c3.623-16.394,7.472-28.103,11.256-44.46
		c2.323-10.038,3.791-15.183,6.153-25.212c0.398-1.691,3.513-13.654,2.438-16.137c-2.623,1.623-9.537,7.227-14.384,13.368
		C82.79,58.574,79.435,66.905,71.853,78.904c-0.803,1.271-1.783,2.805-3.045,3.317c-1.566,0.635-3.63,0.719-5.236,0.234
		c-0.599-0.18-0.921-2.709-0.676-4.04c2.568-13.925,3.515-20.879,6.082-34.805C69.634,40.052,71.009,28.449,71.383,24.839
		L71.383,24.839z"/>
	<path fill-rule="evenodd" clip-rule="evenodd" fill="#FFFFFF" d="M229.121,43.921c-0.57-0.798-2.29-2.171-2.547-3.778
		c-0.574-3.589,2.539-7.814,5.354-7.28c1.749,0.332,4.145,2.193,4.521,3.779C237.235,39.942,233.606,43.863,229.121,43.921z"/>
	<path fill-rule="evenodd" clip-rule="evenodd" fill="#FFFFFF" d="M159.586,84.078c-6.162,5.725-20.258,10.629-27.054,8.525
		c-4.615-1.43-7.857-4.642-8.01-9.636c-0.339-11.027,5.821-20.912,14.4-27.11c3.187-2.303,6.743-4.341,10.435-5.641
		c5.49-1.934,10.756,0.807,9.789,6.514c-1.744,10.29-10.876,20.658-21.853,24.205l0.464,0.383c8.337,3.038,14.89,0.258,20.575-4.076
		c0.535-0.408,0.692-1.317,1.012-1.999c2.667-5.674,4.28-12.258,8.229-16.825c7.1-8.21,13.192-12.229,24.691,0.218
		c4.034-9.036,7.75-17.705,11.758-26.236c3.4-7.236,7.004-14.386,10.83-21.405c0.833-1.528,0.703-1.268,2.544-3.995
		c2.505,2.184,4.122,6.121,3.704,7.627c-1.722,6.212-3.824,10.594-6.271,16.556c-4.862,11.847-8.818,19.757-13.563,31.648
		c-1.827,4.58-2.296,5.671-3.433,10.527c-1.943,7.323,4.144,3.848,5.4,2.798c3.156-2.724,4.374-4.165,7.895-8.591
		c3.741-4.703,5.264-8.082,8.915-12.861c1.009-1.32,1.613-2.257,2.954-3.354c0.297,0.113,0.559,0.264,0.824,0.375
		c9.486,3.959-1.126,14.293-1.018,22.302c0.31,4.391,11.599-2.723,14.045-4.935c3.997-6.437,4.741-9.351,8.449-15.148
		c1.291-2.019,1.844-3.013,3.332-4.502c0.298-0.299,0.375-0.215,1.031-0.097c1.945,0.348,5.538,2.046,5.235,5.179
		c-0.697,7.198-9.02,15.257-8.126,19.33c1.451,6.617,10.591,0.135,16.783-6.753c5.108-5.65,8.9-18.652,12.925-21.129
		c3.947,0.929,5.233,8.425,3.146,12.848c-2.353,4.986-3.887,8.634-4.876,12.654c-0.72,2.925-0.902,3.986,1.343,4.063
		c4.4,0.151,13.416-7.247,17.064-10.895c1.137-1.137,2.209-4.538,2.884-6.173c2.53-6.126,3.312-9.066,4.509-12.265
		c0.14-0.373,7.198-2.864,5.521,5.239c4.439-5.65,6.554-6.787,9.886-7.894c5.993-1.99,10.289,0.101,10.366,3.274
		c0.044,1.806-0.103,4.771-1.071,7.701c8.924-8.581,11.172-8.966,14.279-9.752c2.251-0.57,5.193,0.063,6.688,2.202
		c0.891,1.275,1.87,4.347,2.012,7.584c0.341,8.563,3.869,23.872,3.869,26.292c0,0.952,0.774,0.643-3.559,2.577
		c-4.76,1.527-7.639-0.726-7.973-1.018c-2.103-1.844-2.911-3.678-2.815-5.888c0.142-2.537,0.726-7.722,1.345-14.688
		c0.305-3.413,1.02-9.263-1.811-9.206c-2.168-0.31-6.168,4.719-10.057,10.192c-1.861,3.015-5.308,5.084-6.888,5.358
		c-0.931,0.162-1.282,0.316-2.56,0.238c-2.737-0.368-2.543-1.935-1.084-8.591c1.545-4.566,1.177-6.659-0.574-6.878
		c-3.156,0.816-6.621,4.428-8.984,7.962c-3.324,4.965-4.493,8.259-6.618,13.815c-1.625,4.25-4.7,7.725-8.061,8.514
		c-0.709,0.167-10.409,1.955-3.908-7.972c-7.895,7.236-21.913,12.646-22.929,1.025c-2.16,4.342-7.65,7.128-10.837,8.57
		c-3.096,1.4-10.196,3.136-13.06,2.826c-7.161-0.773-7.576-4.302-8.076-9.315c-1.876,1.302,0,0,0,0
		c-2.198,2.679-4.758,4.719-10.188,7.682c-3.349,1.828-11.609,3.568-12.925,1.208c-1.464-2.626-1.239-4.555,0.054-10.507
		c-2.674,3.167-3.603,3.993-6.576,6.849c-2.485,2.387-4.673,4.245-7.746,5.786c-3.748,1.879-5.884,0.493-7.141-3.076
		c-0.315-0.895-1.373-4.997-1.346-7.291c-3.678,3.69-3.793,4.244-8.243,7.872C173.093,92.706,164.224,91.963,159.586,84.078
		 M177.344,78.672c3.607-3.339,4.411-4.307,7.553-8.542c1.361-1.834,3.637-4.638,1.183-7.227c-2.174-2.293-6.745-0.451-8.504,1.024
		c-3.599,3.019-6.219,8.205-6.733,11.029C170.561,77.331,171.203,83.313,177.344,78.672 M147.152,61.116
		c-1.934-1.487-11.082,4.645-10.525,13.141C142.107,73.332,150.552,67.351,147.152,61.116z"/>
	<path fill-rule="evenodd" clip-rule="evenodd" fill="#FFFFFF" d="M549.516,80.884c3.808,7.062,15.19,4.063,22.666,2.065
		c10.385-2.776,18.68-5.326,30.289-9.196c0,1.239-0.781,4.202-2.347,5.09c-13.449,7.623-27.02,12.71-43.162,13.746
		c-5.83-0.045-12.462,0.388-16.949-6.656c-0.639-1-0.349-1.69-1.161-1.393c-6.579,2.4-14.235,4.468-19.329,4.69
		c-4.677,0.204-6.323-2.978-4.315-7.226c2.808-5.941,11.415-16.5,7.7-17.809c-6.516,1.497-10.407,4.248-15.094,9.037
		c-3.6,3.678-4.755,4.966-8.853,8.072c-2.228,1.69-7.82,4.831-10.519,5.759c-6.843,2.354-12.97,2.507-12.97-7.1
		c-5.573,5.208-15.321,7.621-20.382,8.16c-7.3,0.776-9.507-1.719-9.255-9.056c0.595-17.339,17.49-27.348,31.998-19.671
		c1.125,0.595,2.521,2.224,4.054,2.157c5.341-0.232,5.388,4.086,1.965,9.182c-1.354,2.015-0.762,1.138-2.175,3.268
		c-2.521,11.604,5.302,6.687,8.569,5.042c1.785-0.899,7.535-4.225,9.806-7.656c1.821-2.752,0.725,0.254-0.586-4.644
		c-0.7-2.622,2.077-6.952,4.468-9.317c1.347-1.333,8.603-0.673,8.138,1.958c3.562-1.446,6.659-4.623,10.361-5.342
		c2.619-0.509,6.786-0.254,8.074,1.382c1.656,2.107,2.144,6.251,1.306,8.95c-1.384,4.462-4.25,8.46-6.448,12.677
		c-0.662,1.273-1.18,2.622-1.764,3.937c-0.887,2.388,1.125,2.659,5.963,0.145c4.76-2.168,7.713-3.65,9.131-5.07
		c0.93-0.929,0.816-2.414,1.146-3.875c2.275-10.051,8.337-16.065,17.716-17.693c3.571-0.619,8.525-0.842,10.317,2.54
		c0.419,0.789,2.424,8.04-2.189,12.589c-3.893,3.837-5.445,4.964-10.825,8.038C554.046,78.307,550.935,79.96,549.516,80.884z
		 M559.671,63.256c-1.315-1.354-8.495,3.578-11.224,9.943C556.264,71.032,561.606,64.804,559.671,63.256z M455.883,80.395
		c3.097,3.724,16.654-4.854,19.59-13.858C463.237,62.376,454.878,77.077,455.883,80.395z"/>
</g>
</svg>
